# xmcd
#
# Track frame offsets:
#	150
#	14543
#	27273
#	36978
#	48729
#	60892
#	71271
#	82539
#	95033
#	108902
#	122374
#	135119
#	144974
#	156581
#	169534
#	182760
#	195354
#	205835
#	219824
#	232306
#	244652
#	258691
#	271288
#	285017
#	297762
#
# Disc length: 4149 seconds
#
# Revision: 1
# Processed by: cddbd v1.5.1PL2 Copyright (c) Steve Scherf et al.
# Submitted via: audiograbber 1.83.01
#
DISCID=51103319
DTITLE=Various Artist - Mountain Gospel - CD 4
DYEAR=1900
DGENRE=Country
TTITLE0=J.E. Mainer's Mountaineers - Lights in the Valley
TTITLE1=J.E. Mainer's Mountaineers - This World Is Not My Home
TTITLE2=J.E. Mainer's Mountaineers - In a Little Village Churchyard
TTITLE3=J.E. Mainer's Mountaineers - Just Over in the Gloryland
TTITLE4=Wade Mainer and The Sons of the Mountaineers - Life's Ev'nin' Sun
TTITLE5=Wade Mainer and The Sons of the Mountaineers - Home in the Sky
TTITLE6=Wade Mainer and The Sons of the Mountaineers - Mansions in the Sky
TTITLE7=Wade Mainer and The Sons of the Mountaineers - The Precious Jewel
TTITLE8=Carolina Ramblers - I Got a Home in the Beulah Land
TTITLE9=Carolina Ramblers - That Lonesome Valley
TTITLE10=Dixie Reelers - Lonesome Valley (part 2)
TTITLE11=Dixie Reelers - I Shall Not Be Moved
TTITLE12=Morris Brothers and Eunice - Gabriel's Trumpet
TTITLE13=Coon Creek Girls - Sowing on the Mountain
TTITLE14=Byron Parker and his Mountaineers - I Love My Saviour
TTITLE15=Byron Parker and his Mountaineers - He Is My Friend and Guide
TTITLE16=Bill Carlisle - The Heavenly Train
TTITLE17=Bill Carlisle - He Will Be Your Savior, Too
TTITLE18=Southern Melody Boys - Tribulation Days
TTITLE19=Edith and Sherman Collins - I Can't Fell At Home in This World, Anymore
TTITLE20=Alcoa Quartet - I'm Redeemed
TTITLE21=Vaughan Quartet - In Steps of Light
TTITLE22=Mr. and Mrs. R.N. Grisham - We'll Be At Home, Again
TTITLE23=Giddens Sisters - I'm Going Home to Die No More
TTITLE24=William Rexroat's Cedar Crest Singers - What Kind of Shoes You Gwine t
TTITLE24=o Wear
EXTD=
EXTT0=
EXTT1=
EXTT2=
EXTT3=
EXTT4=
EXTT5=
EXTT6=
EXTT7=
EXTT8=
EXTT9=
EXTT10=
EXTT11=
EXTT12=
EXTT13=
EXTT14=
EXTT15=
EXTT16=
EXTT17=
EXTT18=
EXTT19=
EXTT20=
EXTT21=
EXTT22=
EXTT23=
EXTT24=
PLAYORDER=
